<!DOCTYPE svg PUBLIC "-//W3C//DTD SVG 20010904//EN" "http://www.w3.org/TR/2001/REC-SVG-20010904/DTD/svg10.dtd">
<svg version="1.0" xmlns="http://www.w3.org/2000/svg" width="1600px" height="1600px" viewBox="0 0 16000 16000" preserveAspectRatio="xMidYMid meet">
<g id="layer1" fill="#ffffff" stroke="none">
 <path d="M0 8000 l0 -8000 8000 0 8000 0 0 8000 0 8000 -8000 0 -8000 0 0 -8000z m8568 2595 c125 -38 188 -168 127 -262 -27 -41 -88 -60 -235 -73 -145 -13 -170 -20 -170 -49 0 -17 9 -19 103 -17 97 1 105 0 157 -30 120 -68 145 -220 52 -317 -22 -23 -24 -29 -12 -37 8 -5 22 -8 30 -5 62 17 69 17 94 -9 33 -33 33 -51 -3 -87 -49 -48 -118 -34 -183 39 -36 40 -38 40 -75 30 -83 -23 -194 10 -248 73 -36 44 -46 74 -46 136 0 56 10 84 48 125 24 25 24 26 6 32 -38 12 -75 62 -80 109 -5 46 17 107 39 107 7 0 -5 15 -25 34 -29 27 -37 41 -37 69 0 76 46 121 150 144 70 16 238 10 308 -12z m362 -260 c10 -25 24 -32 34 -16 3 5 35 17 71 26 234 64 452 -108 395 -311 -26 -92 -81 -125 -307 -185 -137 -35 -151 -42 -159 -74 -9 -35 0 -52 38 -75 25 -16 45 -20 83 -17 82 6 135 38 200 121 l31 38 38 -16 c20 -8 35 -19 33 -23 -2 -5 -19 -54 -36 -110 -31 -102 -32 -103 -63 -103 -17 0 -36 7 -42 15 -10 12 -19 11 -71 -7 -75 -26 -190 -21 -251 10 -170 88 -179 324 -16 396 20 9 98 32 172 51 179 47 207 69 179 137 -14 34 -75 67 -125 68 -92 0 -191 -61 -253 -159 -31 -48 -33 -49 -64 -39 -18 6 -35 14 -39 17 -5 4 13 69 38 144 45 135 46 137 75 137 22 0 32 -6 39 -25z m-3231 -1 c53 -15 114 -62 152 -115 l20 -29 -44 -21 -44 -22 -41 41 c-88 88 -200 59 -232 -60 -19 -69 -21 -68 176 -68 l176 0 -7 -57 c-10 -82 -32 -129 -78 -168 -98 -84 -262 -85 -370 -2 -82 62 -120 214 -82 328 24 71 101 148 170 171 64 21 137 22 204 2z m563 6 c44 -13 132 -71 135 -91 1 -8 -11 -29 -27 -48 l-29 -34 -36 32 c-45 39 -82 41 -95 5 -6 -14 -10 -93 -10 -175 l0 -149 75 0 75 0 0 -45 0 -44 -72 -3 -73 -3 -3 -87 -3 -88 -49 0 c-47 0 -49 1 -55 33 -17 78 -66 137 -128 152 -24 6 -27 12 -27 46 0 39 0 39 39 39 l39 0 4 193 c3 214 9 235 71 262 38 17 118 19 169 5z m553 -18 c22 -11 53 -33 68 -50 l28 -29 -27 -34 c-16 -19 -29 -36 -31 -38 -1 -2 -18 10 -38 28 -41 35 -79 40 -95 12 -6 -11 -10 -87 -10 -175 l0 -156 75 0 75 0 0 -45 0 -45 -75 0 -75 0 0 -90 0 -90 -49 0 -49 0 -11 43 c-17 69 -47 106 -101 130 -47 21 -50 24 -50 60 0 37 1 37 39 37 l39 0 4 193 c3 214 9 235 71 263 45 20 160 13 212 -14z m3008 17 c45 -11 114 -54 130 -80 8 -12 3 -25 -18 -53 l-27 -36 -41 30 c-23 17 -48 30 -57 30 -36 0 -40 -20 -40 -187 l0 -162 73 -3 72 -3 3 -42 3 -43 -75 0 -75 0 -3 -87 -3 -88 -52 -3 c-38 -2 -53 1 -53 10 0 68 -59 151 -121 169 -36 11 -39 15 -39 50 0 37 1 38 43 41 l42 3 5 196 c5 179 7 199 25 219 42 47 120 62 208 39z m499 -18 l47 -23 29 22 c41 30 111 37 166 16 64 -24 70 -36 39 -74 -19 -25 -30 -31 -45 -26 -13 4 -24 1 -29 -7 -5 -8 -9 -88 -9 -178 0 -191 -8 -213 -88 -253 -40 -19 -63 -23 -147 -23 -88 0 -107 3 -150 26 -89 45 -122 133 -70 184 48 49 120 24 131 -46 10 -63 70 -89 122 -53 17 12 22 25 22 62 l0 47 -75 12 c-140 23 -226 79 -241 158 -21 116 54 190 186 182 39 -3 84 -13 112 -26z m664 14 c27 -8 69 -31 92 -51 l42 -36 -31 -39 -31 -39 -30 25 c-16 14 -41 28 -55 31 -46 12 -53 -12 -53 -188 l0 -158 75 0 75 0 0 -45 0 -45 -75 0 -75 0 0 -91 0 -90 -52 3 -52 3 -11 45 c-17 67 -41 97 -96 122 -46 21 -49 25 -49 60 0 35 1 37 38 40 l37 3 5 190 c4 163 8 195 23 219 36 54 125 70 223 41z m569 -13 c72 -37 125 -111 125 -175 0 -36 -38 -101 -72 -124 -20 -13 -76 -30 -138 -43 -134 -26 -178 -55 -137 -88 44 -37 124 -25 180 28 38 34 45 37 82 31 22 -3 40 -11 40 -16 0 -6 -4 -41 -9 -79 l-8 -69 -49 6 c-32 4 -64 1 -95 -10 -150 -51 -314 52 -301 190 8 93 68 137 216 161 68 11 100 21 115 35 l20 21 -20 21 c-48 48 -159 32 -225 -31 -37 -35 -45 -38 -76 -32 -19 4 -34 12 -35 17 0 6 8 47 17 93 l18 82 37 0 c21 0 40 -5 42 -11 3 -8 17 -6 48 5 61 22 171 16 225 -12z m-6450 -12 c71 -36 108 -92 113 -174 3 -49 0 -71 -17 -103 -21 -42 -58 -78 -92 -88 -18 -6 -16 -11 20 -50 46 -50 55 -77 49 -144 -6 -60 -36 -104 -91 -134 -40 -21 -55 -22 -319 -25 l-278 -3 0 45 c0 42 2 46 25 46 14 0 34 9 45 20 19 19 20 33 20 265 0 232 -1 246 -20 265 -11 11 -31 20 -45 20 -23 0 -25 4 -25 46 l0 45 283 -3 c278 -3 283 -3 332 -28z m2195 -15 c0 -38 -3 -45 -20 -45 -11 0 -29 -9 -40 -20 -19 -19 -20 -33 -20 -230 l0 -210 -37 0 c-51 0 -205 28 -216 39 -4 4 -7 24 -5 42 2 27 8 35 26 37 44 7 53 38 50 183 l-3 134 -37 18 c-34 17 -38 22 -38 58 l0 39 170 0 170 0 0 -45z m390 5 c0 -33 -4 -42 -29 -54 -35 -19 -41 -45 -41 -186 l0 -108 35 -22 c19 -12 49 -23 67 -26 59 -9 63 0 66 161 3 128 1 149 -14 166 -9 10 -23 19 -31 19 -9 0 -13 14 -13 45 l0 45 160 0 160 0 0 -41 c0 -36 -3 -41 -30 -51 -17 -5 -35 -18 -40 -28 -6 -10 -10 -83 -10 -162 0 -172 -14 -214 -79 -247 -61 -31 -125 -28 -258 14 -19 6 -23 4 -23 -15 0 -22 -3 -22 -67 -17 -38 3 -92 10 -120 17 l-53 12 0 42 c0 38 3 44 33 57 l32 14 3 142 c3 151 -4 173 -49 173 -16 0 -19 7 -19 45 l0 45 160 0 160 0 0 -40z m-525 -564 c38 -16 65 -60 65 -107 0 -44 -56 -99 -102 -99 -18 0 -44 7 -56 16 -26 18 -52 65 -52 94 0 33 28 78 58 94 34 19 45 19 87 2z m1050 -135 c34 -7 34 -6 58 -235 l12 -120 95 -17 c129 -23 240 -52 362 -96 98 -35 102 -35 115 -17 50 76 181 249 194 257 12 8 50 -10 160 -73 182 -104 223 -132 227 -152 2 -9 -27 -85 -64 -168 l-68 -152 44 -36 c58 -46 275 -263 326 -325 l39 -49 135 62 c149 69 182 81 198 71 19 -12 212 -354 212 -375 0 -17 -34 -46 -139 -120 l-140 -99 21 -51 c11 -28 27 -69 35 -91 20 -55 68 -254 83 -342 14 -84 -10 -73 212 -97 75 -8 142 -17 148 -21 6 -4 10 -83 10 -225 0 -199 -2 -220 -17 -228 -10 -5 -81 -15 -158 -21 -199 -17 -181 -8 -196 -98 l-14 -78 -196 -3 -196 -2 18 86 c43 207 44 459 4 674 -41 212 -164 500 -290 675 -361 505 -964 790 -1557 737 -250 -23 -421 -68 -623 -167 -340 -165 -597 -407 -781 -732 l-46 -83 -205 0 c-222 0 -211 -3 -189 50 5 12 -19 33 -86 80 -139 98 -188 139 -188 157 0 21 168 320 201 357 l26 29 159 -72 159 -72 40 48 c52 63 256 268 319 320 l50 41 -62 139 c-75 169 -79 184 -55 205 17 14 234 142 317 186 28 15 44 18 57 11 10 -5 57 -64 105 -132 48 -67 90 -126 95 -130 4 -5 60 9 125 32 131 44 292 86 378 96 31 4 58 11 61 14 3 6 35 296 35 323 0 4 7 14 16 22 13 14 45 16 202 15 103 -1 201 -4 217 -8z m-316 -1658 l0 -778 -90 -57 c-82 -53 -93 -57 -132 -52 -40 6 -47 13 -154 146 l-113 140 0 637 0 638 108 33 c110 34 278 68 345 69 l37 1 -1 -777z m396 762 c88 -14 242 -53 298 -74 l27 -11 0 -692 -1 -693 -54 60 c-44 48 -55 67 -55 93 0 78 -61 142 -135 142 -21 0 -52 -9 -70 -20 -32 -20 -65 -72 -65 -104 0 -12 -44 -49 -97 -80 -10 -6 -13 136 -13 693 l0 701 38 0 c20 0 78 -7 127 -15z m727 -305 c51 -36 143 -115 205 -177 l113 -112 0 -706 0 -705 -63 0 c-53 0 -67 4 -83 21 -23 26 -74 49 -109 49 -20 0 -51 25 -130 108 l-104 107 -1 764 0 763 40 -23 c22 -13 81 -53 132 -89z m-1842 -335 c0 -239 -1 -435 -3 -435 -1 0 -27 32 -57 70 -50 64 -55 75 -55 120 0 40 -5 54 -29 79 -56 58 -144 63 -191 11 -15 -16 -31 -20 -87 -20 l-68 0 0 109 0 108 128 125 c86 84 163 148 236 196 60 40 113 72 118 72 4 0 8 -196 8 -435z m-1668 -185 l30 -30 653 0 c624 0 654 1 667 18 21 30 57 44 93 38 49 -10 70 -39 69 -97 l0 -50 296 -367 c285 -353 297 -367 335 -373 22 -3 45 -8 51 -10 12 -4 103 52 402 249 159 105 172 116 172 144 0 19 10 40 29 59 41 41 91 40 133 -1 27 -27 30 -36 25 -71 -6 -45 -42 -2 376 -446 184 -196 212 -222 233 -217 32 8 79 -12 99 -42 l15 -24 631 0 630 0 25 29 c32 38 73 47 117 26 62 -29 74 -95 28 -147 -24 -27 -36 -33 -71 -33 -36 0 -47 6 -70 33 l-26 32 -636 0 -635 0 -11 -24 c-17 -37 -79 -53 -120 -32 -40 21 -55 49 -50 97 4 44 24 20 -391 462 -169 181 -197 206 -218 201 -13 -4 -36 -1 -52 5 -26 12 -40 4 -292 -160 -145 -94 -271 -176 -281 -182 -9 -6 -19 -27 -22 -48 -10 -64 -81 -99 -138 -68 -29 15 -50 72 -39 102 9 22 -19 60 -293 398 l-302 374 -44 6 c-31 4 -50 14 -65 32 l-21 27 -653 0 -652 0 -26 -30 c-20 -24 -33 -30 -64 -30 -84 0 -120 91 -60 151 40 39 82 39 123 -1z m874 -142 c-23 -56 -71 -220 -87 -294 -105 -503 33 -1045 370 -1458 408 -499 1072 -731 1709 -596 333 70 621 228 867 474 189 190 299 354 394 591 l40 100 201 3 c110 1 200 1 200 0 0 -9 -51 -163 -73 -219 l-25 -66 91 -64 c138 -97 187 -138 187 -156 0 -21 -168 -320 -201 -357 l-25 -28 -160 71 -159 72 -39 -48 c-52 -63 -258 -269 -320 -320 l-50 -40 67 -150 c37 -83 67 -160 67 -171 0 -16 -34 -40 -157 -111 -205 -116 -213 -120 -230 -114 -7 3 -55 62 -105 132 -50 69 -94 130 -98 134 -4 5 -68 -12 -141 -36 -134 -46 -343 -97 -393 -97 -15 0 -29 -6 -31 -12 -2 -7 -11 -81 -20 -165 -8 -84 -18 -159 -21 -168 -10 -24 -41 -27 -249 -24 -153 3 -198 7 -204 18 -5 7 -14 73 -21 145 -20 213 -12 197 -104 213 -116 20 -269 60 -372 99 -51 19 -96 34 -100 34 -5 0 -49 -57 -99 -127 -49 -69 -99 -132 -111 -139 -18 -13 -36 -5 -188 81 -174 98 -206 119 -206 141 0 7 29 77 65 157 36 80 65 149 65 155 0 5 -30 35 -67 65 -71 58 -216 204 -293 295 l-45 53 -140 -64 c-149 -68 -177 -78 -193 -68 -14 9 -212 357 -212 374 0 19 25 40 163 137 87 63 116 88 111 99 -53 126 -90 256 -142 511 l-7 35 -160 16 c-88 9 -168 20 -177 24 -16 6 -18 27 -18 219 0 116 4 217 9 225 7 10 57 19 175 31 91 9 168 19 171 22 3 2 12 45 20 94 9 49 27 133 42 187 l26 97 204 0 c160 0 204 -3 199 -12z m455 -4 c18 -22 64 -44 91 -44 17 0 50 -34 136 -140 l112 -139 0 -155 0 -156 -245 0 -245 0 0 325 0 325 69 0 c50 0 72 -4 82 -16z m1548 -469 c9 5 187 -170 218 -214 10 -15 13 -49 11 -133 l-3 -113 -240 0 -240 0 -3 176 -2 176 92 60 c84 54 96 59 126 51 18 -5 36 -6 41 -3z m-911 -222 c47 -59 52 -70 52 -116 0 -44 4 -53 39 -88 33 -33 45 -39 81 -39 62 0 106 31 127 89 13 37 27 54 65 79 26 18 50 32 53 32 3 0 5 -117 5 -260 l0 -260 -245 0 -245 0 0 315 c0 173 3 315 8 314 4 0 31 -30 60 -66z m1482 -417 c0 -43 5 -53 39 -87 36 -36 43 -39 94 -39 48 0 61 4 90 30 30 26 42 30 96 30 l61 0 0 -215 0 -215 -245 0 -245 0 0 333 0 332 55 -60 c50 -55 54 -64 55 -109z"/>
 <path d="M8313 10521 c-73 -19 -99 -55 -69 -96 13 -18 20 -18 137 -6 123 12 169 27 169 56 0 28 -47 47 -127 51 -43 2 -93 -1 -110 -5z"/>
 <path d="M8356 10078 c-25 -35 -22 -148 5 -182 24 -31 57 -34 89 -8 39 31 41 159 4 196 -24 24 -80 20 -98 -6z"/>
 <path d="M5514 9948 c7 -40 48 -78 82 -78 29 0 64 32 64 59 0 11 3 26 6 35 5 14 -5 16 -76 16 l-82 0 6 -32z"/>
 <path d="M10217 10222 c-41 -45 -6 -102 77 -127 l46 -14 0 63 c0 63 -1 64 -34 80 -44 21 -69 20 -89 -2z"/>
 <path d="M4816 10240 c-16 -5 -33 -15 -37 -22 -5 -7 -9 -61 -9 -120 l0 -108 81 0 c127 0 169 30 169 121 0 51 -23 95 -58 113 -37 19 -110 27 -146 16z"/>
 <path d="M4770 9796 c0 -99 6 -106 90 -106 60 0 114 20 129 48 20 37 13 86 -15 113 -22 21 -37 24 -115 27 l-89 4 0 -86z"/>
 </g>
<g id="layer2" fill="#476b3b" stroke="none">
 <path d="M8260 10607 c-104 -23 -150 -68 -150 -144 0 -28 8 -42 37 -69 20 -19 32 -34 25 -34 -22 0 -44 -61 -39 -107 5 -47 42 -97 80 -109 18 -6 18 -7 -6 -32 -38 -41 -48 -69 -48 -125 0 -62 10 -92 46 -136 54 -63 165 -96 248 -73 37 10 39 10 75 -30 65 -73 134 -87 183 -39 36 36 36 54 3 87 -25 26 -32 26 -94 9 -8 -3 -22 0 -30 5 -12 8 -10 14 12 37 63 65 74 150 31 233 -22 42 -40 59 -83 84 -52 30 -60 31 -157 30 -94 -2 -103 0 -103 17 0 29 25 36 170 49 147 13 208 32 235 73 61 94 -2 224 -127 262 -70 22 -238 28 -308 12z m265 -101 c14 -9 25 -23 25 -31 0 -29 -46 -44 -169 -56 -117 -12 -124 -12 -137 6 -30 41 -4 77 69 96 50 13 184 3 212 -15z m-71 -422 c22 -22 29 -56 24 -121 -4 -43 -10 -61 -28 -75 -32 -26 -65 -23 -89 8 -27 34 -30 147 -5 182 18 26 74 30 98 6z"/>
 <path d="M8816 10223 c-25 -75 -43 -140 -38 -144 4 -3 21 -11 39 -17 31 -10 33 -9 64 39 62 98 161 159 253 159 50 -1 111 -34 125 -68 28 -68 0 -90 -179 -137 -74 -19 -152 -42 -172 -51 -163 -72 -154 -308 16 -396 61 -31 176 -36 251 -10 52 18 61 19 71 7 6 -8 25 -15 42 -15 31 0 32 1 63 103 17 56 34 105 36 110 2 4 -13 15 -33 23 l-38 16 -31 -38 c-65 -83 -118 -115 -200 -121 -38 -3 -58 1 -83 17 -38 23 -47 40 -38 75 8 32 22 39 159 74 226 60 281 93 307 185 57 203 -161 375 -395 311 -36 -9 -68 -21 -71 -26 -10 -16 -24 -9 -34 16 -7 19 -17 25 -39 25 -29 0 -30 -2 -75 -137z"/>
 <path d="M5495 10332 c-69 -23 -146 -100 -170 -171 -38 -114 0 -266 82 -328 108 -83 272 -82 370 2 46 39 68 86 78 168 l7 57 -176 0 c-197 0 -195 -1 -176 68 32 119 144 148 232 60 l41 -41 44 22 44 21 -20 29 c-81 114 -220 158 -356 113z m171 -368 c-3 -9 -6 -24 -6 -35 0 -27 -35 -59 -64 -59 -34 0 -75 38 -82 78 l-6 32 82 0 c71 0 81 -2 76 -16z"/>
 <path d="M6093 10335 c-62 -27 -68 -48 -71 -262 l-4 -193 -39 0 c-39 0 -39 0 -39 -39 0 -34 3 -40 27 -46 62 -15 111 -74 128 -152 6 -32 8 -33 55 -33 l49 0 3 88 3 87 73 3 72 3 0 44 0 45 -75 0 -75 0 0 149 c0 82 4 161 10 175 13 36 50 34 95 -5 l36 -32 29 34 c16 19 28 40 27 48 -3 20 -91 78 -135 91 -51 14 -131 12 -169 -5z"/>
 <path d="M6603 10336 c-62 -28 -68 -49 -71 -263 l-4 -193 -39 0 c-38 0 -39 0 -39 -37 0 -36 3 -39 50 -60 54 -24 84 -61 101 -130 l11 -43 49 0 49 0 0 90 0 90 75 0 75 0 0 45 0 45 -75 0 -75 0 0 156 c0 88 4 164 10 175 16 28 54 23 95 -12 20 -18 37 -30 38 -28 2 2 15 19 31 38 l27 34 -28 29 c-15 17 -46 39 -68 50 -52 27 -167 34 -212 14z"/>
 <path d="M9665 10336 c-67 -30 -69 -38 -75 -255 l-5 -196 -42 -3 c-42 -3 -43 -4 -43 -41 0 -35 3 -39 39 -50 62 -18 121 -101 121 -169 0 -9 15 -12 53 -10 l52 3 3 88 3 87 75 0 75 0 -3 43 -3 42 -72 3 -73 3 0 162 c0 167 4 187 40 187 9 0 34 -13 57 -30 l41 -30 27 36 c33 43 29 55 -31 96 -67 46 -176 62 -239 34z"/>
 <path d="M10103 10331 c-46 -21 -69 -51 -79 -99 -23 -115 65 -197 241 -225 l75 -12 0 -47 c0 -37 -5 -50 -22 -62 -52 -36 -112 -10 -122 53 -11 70 -83 95 -131 46 -52 -51 -19 -139 70 -184 43 -23 62 -26 150 -26 84 0 107 4 147 23 80 40 88 62 88 253 0 90 4 170 9 178 5 8 16 11 29 7 15 -5 26 1 45 26 31 38 25 50 -39 74 -55 21 -125 14 -166 -16 l-29 -22 -47 23 c-67 31 -164 36 -219 10z m203 -107 c33 -16 34 -17 34 -80 l0 -63 -46 14 c-83 25 -118 82 -77 127 20 22 45 23 89 2z"/>
 <path d="M10813 10335 c-61 -26 -67 -48 -73 -260 l-5 -190 -37 -3 c-37 -3 -38 -5 -38 -40 0 -35 3 -39 49 -60 55 -25 79 -55 96 -122 l11 -45 52 -3 52 -3 0 90 0 91 75 0 75 0 0 45 0 45 -75 0 -75 0 0 158 c0 176 7 200 53 188 14 -3 39 -17 55 -31 l30 -25 31 39 31 39 -42 36 c-69 60 -191 83 -265 51z"/>
 <path d="M11330 10334 c-31 -11 -45 -13 -48 -5 -2 6 -21 11 -42 11 l-37 0 -18 -82 c-9 -46 -17 -87 -17 -93 1 -5 16 -13 35 -17 31 -6 39 -3 76 32 66 63 177 79 225 31 l20 -21 -20 -21 c-15 -14 -47 -24 -115 -35 -148 -24 -208 -68 -216 -161 -13 -138 151 -241 301 -190 31 11 63 14 95 10 l49 -6 8 69 c5 38 9 73 9 79 0 5 -18 13 -40 16 -37 6 -44 3 -82 -31 -56 -53 -136 -65 -180 -28 -41 33 3 62 137 88 62 13 118 30 138 43 34 23 72 88 72 124 0 64 -53 138 -125 175 -54 28 -164 34 -225 12z"/>
 <path d="M4490 10296 c0 -42 2 -46 25 -46 14 0 34 -9 45 -20 19 -19 20 -33 20 -265 0 -232 -1 -246 -20 -265 -11 -11 -31 -20 -45 -20 -23 0 -25 -4 -25 -46 l0 -45 278 3 c264 3 279 4 319 25 55 30 85 74 91 134 6 67 -3 94 -49 144 -36 39 -38 44 -20 50 105 33 146 195 75 297 -18 27 -48 52 -79 68 -49 25 -54 25 -332 28 l-283 3 0 -45z m472 -72 c35 -18 58 -62 58 -113 0 -91 -42 -121 -169 -121 l-81 0 0 108 c0 59 4 113 9 120 20 33 125 36 183 6z m12 -373 c28 -27 35 -76 15 -113 -15 -28 -69 -48 -129 -48 -84 0 -90 7 -90 106 l0 86 89 -4 c78 -3 93 -6 115 -27z"/>
 <path d="M6960 10301 c0 -36 4 -41 38 -58 l37 -18 3 -134 c3 -145 -6 -176 -50 -183 -18 -2 -24 -10 -26 -37 -2 -18 1 -38 5 -42 11 -11 165 -39 216 -39 l37 0 0 210 c0 197 1 211 20 230 11 11 29 20 40 20 17 0 20 7 20 45 l0 45 -170 0 -170 0 0 -39z"/>
 <path d="M7370 10295 c0 -38 3 -45 19 -45 45 0 52 -22 49 -173 l-3 -142 -32 -14 c-30 -13 -33 -19 -33 -57 l0 -42 53 -12 c28 -7 82 -14 120 -17 64 -5 67 -5 67 17 0 19 4 21 23 15 133 -42 197 -45 258 -14 65 33 79 75 79 247 0 79 4 152 10 162 5 10 23 23 40 28 27 10 30 15 30 51 l0 41 -160 0 -160 0 0 -45 c0 -31 4 -45 13 -45 8 0 22 -9 31 -19 15 -17 17 -38 14 -166 -3 -161 -7 -170 -66 -161 -18 3 -48 14 -67 26 l-35 22 0 108 c0 141 6 167 41 186 25 12 29 21 29 54 l0 40 -160 0 -160 0 0 -45z"/>
 <path d="M7078 9734 c-30 -16 -58 -61 -58 -94 0 -29 26 -76 52 -94 12 -9 38 -16 56 -16 46 0 102 55 102 99 0 47 -27 91 -65 107 -42 17 -53 17 -87 -2z"/>
 <path d="M7725 8701 c-55 -10 -148 -33 -207 -51 l-108 -33 0 -638 0 -637 113 -140 c107 -133 114 -140 154 -146 39 -5 50 -1 132 52 l90 57 0 778 1 777 -37 -1 c-21 0 -83 -9 -138 -18z"/>
 <path d="M8130 8019 c0 -557 3 -699 13 -693 53 31 97 68 97 80 0 32 33 84 65 104 90 56 205 -12 205 -122 0 -26 11 -45 55 -93 l54 -60 1 693 0 692 -27 11 c-97 37 -345 89 -425 89 l-38 0 0 -701z"/>
 <path d="M8850 7749 l1 -764 104 -107 c79 -83 110 -108 130 -108 35 0 86 -23 109 -49 16 -17 30 -21 83 -21 l63 0 0 705 0 706 -113 112 c-102 101 -230 202 -337 266 l-40 23 0 -763z"/>
 <path d="M7054 8428 c-73 -48 -150 -112 -236 -196 l-128 -125 0 -108 0 -109 68 0 c56 0 72 4 87 20 47 52 135 47 191 -11 24 -25 29 -39 29 -79 0 -45 5 -56 55 -120 30 -38 56 -70 57 -70 2 0 3 196 3 435 0 239 -4 435 -8 435 -5 0 -58 -32 -118 -72z"/>
 <path d="M5389 7881 c-60 -60 -24 -151 60 -151 31 0 44 6 64 30 l26 30 652 0 653 0 21 -27 c15 -18 34 -28 65 -32 l44 -6 302 -374 c274 -338 302 -376 293 -398 -11 -30 10 -87 39 -102 57 -31 128 4 138 68 3 21 13 42 22 48 10 6 136 88 281 182 252 164 266 172 292 160 16 -6 39 -9 52 -5 21 5 49 -20 218 -201 415 -442 395 -418 391 -462 -5 -48 10 -76 50 -97 41 -21 103 -5 120 32 l11 24 635 0 636 0 26 -32 c23 -27 34 -33 70 -33 35 0 47 6 71 33 46 52 34 118 -28 147 -44 21 -85 12 -117 -26 l-25 -29 -630 0 -631 0 -15 24 c-20 30 -67 50 -99 42 -21 -5 -49 21 -233 217 -418 444 -382 401 -376 446 5 35 2 44 -25 71 -42 41 -92 42 -133 1 -19 -19 -29 -40 -29 -59 0 -28 -13 -39 -172 -144 -299 -197 -390 -253 -402 -249 -6 2 -29 7 -51 10 -38 6 -50 20 -335 373 l-296 367 0 50 c1 58 -20 87 -69 97 -36 6 -72 -8 -93 -38 -13 -17 -43 -18 -667 -18 l-653 0 -30 30 c-41 40 -83 40 -123 1z"/>
 <path d="M5957 7653 c-15 -54 -33 -138 -42 -187 -8 -49 -17 -92 -20 -94 -3 -3 -80 -13 -171 -22 -118 -12 -168 -21 -175 -31 -5 -8 -9 -109 -9 -225 0 -192 2 -213 18 -219 9 -4 89 -15 177 -24 l160 -16 7 -35 c52 -255 89 -385 142 -511 5 -11 -24 -36 -111 -99 -138 -97 -163 -118 -163 -137 0 -17 198 -365 212 -374 16 -10 44 0 193 68 l140 64 45 -53 c77 -91 222 -237 293 -295 37 -30 67 -60 67 -65 0 -6 -29 -75 -65 -155 -36 -80 -65 -150 -65 -157 0 -22 32 -43 206 -141 152 -86 170 -94 188 -81 12 7 62 70 111 139 50 70 94 127 99 127 4 0 49 -15 100 -34 103 -39 256 -79 372 -99 92 -16 84 0 104 -213 7 -72 16 -138 21 -145 6 -11 51 -15 204 -18 208 -3 239 0 249 24 3 9 13 84 21 168 9 84 18 158 20 165 2 6 16 12 31 12 50 0 259 51 393 97 73 24 137 41 141 36 4 -4 48 -65 98 -134 50 -70 98 -129 105 -132 17 -6 25 -2 230 114 123 71 157 95 157 111 0 11 -30 88 -67 171 l-67 150 50 40 c62 51 268 257 320 320 l39 48 159 -72 160 -71 25 28 c33 37 201 336 201 357 0 18 -49 59 -187 156 l-91 64 25 66 c22 56 73 210 73 219 0 1 -90 1 -200 0 l-201 -3 -40 -100 c-95 -237 -205 -401 -394 -591 -199 -199 -414 -334 -668 -419 -420 -141 -862 -121 -1268 55 -739 320 -1174 1158 -1010 1944 16 74 64 238 87 294 5 9 -39 12 -199 12 l-204 0 -26 -97z"/>
 </g>
<g id="layer3" fill="#f99008" stroke="none">
 <path d="M7796 9594 c-9 -8 -16 -18 -16 -22 0 -27 -32 -317 -35 -323 -3 -3 -30 -10 -61 -14 -86 -10 -247 -52 -378 -96 -65 -23 -121 -37 -125 -32 -5 4 -47 63 -95 130 -48 68 -95 127 -105 132 -13 7 -29 4 -57 -11 -83 -44 -300 -172 -317 -186 -24 -21 -20 -36 55 -205 l62 -139 -50 -41 c-63 -52 -267 -257 -319 -320 l-40 -48 -159 72 -159 72 -26 -29 c-33 -37 -201 -336 -201 -357 0 -18 49 -59 188 -157 67 -47 91 -68 86 -80 -22 -53 -33 -50 189 -50 l205 0 46 83 c138 243 338 461 561 609 112 75 324 178 432 212 661 206 1356 22 1822 -481 169 -182 301 -408 380 -648 93 -286 111 -592 52 -879 l-18 -86 196 2 196 3 14 78 c15 90 -3 81 196 98 77 6 148 16 158 21 15 8 17 29 17 228 0 142 -4 221 -10 225 -6 4 -73 13 -148 21 -222 24 -198 13 -212 97 -15 88 -63 287 -83 342 -8 22 -24 63 -35 91 l-21 51 140 99 c105 74 139 103 139 120 0 21 -193 363 -212 375 -16 10 -49 -2 -198 -71 l-135 -62 -39 49 c-51 62 -268 279 -326 325 l-44 36 68 152 c37 83 66 159 64 168 -4 20 -45 48 -227 152 -110 63 -148 81 -160 73 -13 -8 -144 -181 -194 -257 -13 -18 -17 -18 -115 17 -122 44 -233 73 -362 96 l-95 17 -12 120 c-24 229 -24 228 -58 235 -16 4 -114 7 -217 8 -157 1 -189 -1 -202 -15z"/>
 <path d="M6690 7425 l0 -325 245 0 245 0 0 156 0 155 -112 139 c-86 106 -119 140 -136 140 -27 0 -73 22 -91 44 -10 12 -32 16 -82 16 l-69 0 0 -325z"/>
 <path d="M8222 7217 l-92 -60 2 -176 3 -176 240 0 240 0 3 113 c2 84 -1 118 -11 133 -31 44 -209 219 -218 214 -5 -3 -23 -2 -41 3 -30 8 -42 3 -126 -51z"/>
 <path d="M7410 6795 l0 -315 245 0 245 0 0 260 c0 143 -2 260 -5 260 -3 0 -27 -14 -53 -32 -38 -25 -52 -42 -65 -79 -21 -58 -65 -89 -127 -89 -36 0 -48 6 -81 39 -35 35 -39 44 -39 88 0 46 -5 57 -52 116 -29 36 -56 66 -60 66 -5 1 -8 -141 -8 -314z"/>
 <path d="M8850 6463 l0 -333 245 0 245 0 0 215 0 215 -61 0 c-54 0 -66 -4 -96 -30 -29 -26 -42 -30 -90 -30 -51 0 -58 3 -94 39 -34 34 -39 44 -39 87 -1 45 -5 54 -55 109 l-55 60 0 -332z"/>
 </g>

</svg>