<?xml version="1.0" encoding="UTF-8" standalone="no"?>
<svg
   xmlns:dc="http://purl.org/dc/elements/1.1/"
   xmlns:cc="http://creativecommons.org/ns#"
   xmlns:rdf="http://www.w3.org/1999/02/22-rdf-syntax-ns#"
   xmlns:svg="http://www.w3.org/2000/svg"
   xmlns="http://www.w3.org/2000/svg"
   xmlns:sodipodi="http://sodipodi.sourceforge.net/DTD/sodipodi-0.dtd"
   xmlns:inkscape="http://www.inkscape.org/namespaces/inkscape"
   version="1.0"
   width="746.94409"
   height="642.23578"
   viewBox="0 0 7469.4409 6422.3578"
   preserveAspectRatio="xMidYMid meet"
   id="svg67"
   sodipodi:docname="_logo.svg"
   inkscape:version="0.92.1 unknown">
  <metadata
     id="metadata73">
    <rdf:RDF>
      <cc:Work
         rdf:about="">
        <dc:format>image/svg+xml</dc:format>
        <dc:type
           rdf:resource="http://purl.org/dc/dcmitype/StillImage" />
        <dc:title></dc:title>
      </cc:Work>
    </rdf:RDF>
  </metadata>
  <defs
     id="defs71" />
  <sodipodi:namedview
     pagecolor="#ffffff"
     bordercolor="#666666"
     borderopacity="1"
     objecttolerance="10"
     gridtolerance="10"
     guidetolerance="10"
     inkscape:pageopacity="0"
     inkscape:pageshadow="2"
     inkscape:window-width="1920"
     inkscape:window-height="1010"
     id="namedview69"
     showgrid="false"
     inkscape:zoom="1.18"
     inkscape:cx="373.00325"
     inkscape:cy="314.27326"
     inkscape:window-x="0"
     inkscape:window-y="0"
     inkscape:window-maximized="1"
     inkscape:current-layer="svg67" />
  <g
     id="layer2"
     style="fill:#476b3b;stroke:none"
     transform="translate(-4354.264,-4355.0211)">
    <path
       d="m 8260,10607 c -104,-23 -150,-68 -150,-144 0,-28 8,-42 37,-69 20,-19 32,-34 25,-34 -22,0 -44,-61 -39,-107 5,-47 42,-97 80,-109 18,-6 18,-7 -6,-32 -38,-41 -48,-69 -48,-125 0,-62 10,-92 46,-136 54,-63 165,-96 248,-73 37,10 39,10 75,-30 65,-73 134,-87 183,-39 36,36 36,54 3,87 -25,26 -32,26 -94,9 -8,-3 -22,0 -30,5 -12,8 -10,14 12,37 63,65 74,150 31,233 -22,42 -40,59 -83,84 -52,30 -60,31 -157,30 -94,-2 -103,0 -103,17 0,29 25,36 170,49 147,13 208,32 235,73 61,94 -2,224 -127,262 -70,22 -238,28 -308,12 z m 265,-101 c 14,-9 25,-23 25,-31 0,-29 -46,-44 -169,-56 -117,-12 -124,-12 -137,6 -30,41 -4,77 69,96 50,13 184,3 212,-15 z m -71,-422 c 22,-22 29,-56 24,-121 -4,-43 -10,-61 -28,-75 -32,-26 -65,-23 -89,8 -27,34 -30,147 -5,182 18,26 74,30 98,6 z"
       id="path17"
       inkscape:connector-curvature="0" />
    <path
       d="m 8816,10223 c -25,-75 -43,-140 -38,-144 4,-3 21,-11 39,-17 31,-10 33,-9 64,39 62,98 161,159 253,159 50,-1 111,-34 125,-68 28,-68 0,-90 -179,-137 -74,-19 -152,-42 -172,-51 -163,-72 -154,-308 16,-396 61,-31 176,-36 251,-10 52,18 61,19 71,7 6,-8 25,-15 42,-15 31,0 32,1 63,103 17,56 34,105 36,110 2,4 -13,15 -33,23 l -38,16 -31,-38 c -65,-83 -118,-115 -200,-121 -38,-3 -58,1 -83,17 -38,23 -47,40 -38,75 8,32 22,39 159,74 226,60 281,93 307,185 57,203 -161,375 -395,311 -36,-9 -68,-21 -71,-26 -10,-16 -24,-9 -34,16 -7,19 -17,25 -39,25 -29,0 -30,-2 -75,-137 z"
       id="path19"
       inkscape:connector-curvature="0" />
    <path
       d="m 5495,10332 c -69,-23 -146,-100 -170,-171 -38,-114 0,-266 82,-328 108,-83 272,-82 370,2 46,39 68,86 78,168 l 7,57 h -176 c -197,0 -195,-1 -176,68 32,119 144,148 232,60 l 41,-41 44,22 44,21 -20,29 c -81,114 -220,158 -356,113 z m 171,-368 c -3,-9 -6,-24 -6,-35 0,-27 -35,-59 -64,-59 -34,0 -75,38 -82,78 l -6,32 h 82 c 71,0 81,-2 76,-16 z"
       id="path21"
       inkscape:connector-curvature="0" />
    <path
       d="m 6093,10335 c -62,-27 -68,-48 -71,-262 l -4,-193 h -39 c -39,0 -39,0 -39,-39 0,-34 3,-40 27,-46 62,-15 111,-74 128,-152 6,-32 8,-33 55,-33 h 49 l 3,88 3,87 73,3 72,3 v 44 45 h -75 -75 v 149 c 0,82 4,161 10,175 13,36 50,34 95,-5 l 36,-32 29,34 c 16,19 28,40 27,48 -3,20 -91,78 -135,91 -51,14 -131,12 -169,-5 z"
       id="path23"
       inkscape:connector-curvature="0" />
    <path
       d="m 6603,10336 c -62,-28 -68,-49 -71,-263 l -4,-193 h -39 c -38,0 -39,0 -39,-37 0,-36 3,-39 50,-60 54,-24 84,-61 101,-130 l 11,-43 h 49 49 v 90 90 h 75 75 v 45 45 h -75 -75 v 156 c 0,88 4,164 10,175 16,28 54,23 95,-12 20,-18 37,-30 38,-28 2,2 15,19 31,38 l 27,34 -28,29 c -15,17 -46,39 -68,50 -52,27 -167,34 -212,14 z"
       id="path25"
       inkscape:connector-curvature="0" />
    <path
       d="m 9665,10336 c -67,-30 -69,-38 -75,-255 l -5,-196 -42,-3 c -42,-3 -43,-4 -43,-41 0,-35 3,-39 39,-50 62,-18 121,-101 121,-169 0,-9 15,-12 53,-10 l 52,3 3,88 3,87 h 75 75 l -3,43 -3,42 -72,3 -73,3 v 162 c 0,167 4,187 40,187 9,0 34,-13 57,-30 l 41,-30 27,36 c 33,43 29,55 -31,96 -67,46 -176,62 -239,34 z"
       id="path27"
       inkscape:connector-curvature="0" />
    <path
       d="m 10103,10331 c -46,-21 -69,-51 -79,-99 -23,-115 65,-197 241,-225 l 75,-12 v -47 c 0,-37 -5,-50 -22,-62 -52,-36 -112,-10 -122,53 -11,70 -83,95 -131,46 -52,-51 -19,-139 70,-184 43,-23 62,-26 150,-26 84,0 107,4 147,23 80,40 88,62 88,253 0,90 4,170 9,178 5,8 16,11 29,7 15,-5 26,1 45,26 31,38 25,50 -39,74 -55,21 -125,14 -166,-16 l -29,-22 -47,23 c -67,31 -164,36 -219,10 z m 203,-107 c 33,-16 34,-17 34,-80 v -63 l -46,14 c -83,25 -118,82 -77,127 20,22 45,23 89,2 z"
       id="path29"
       inkscape:connector-curvature="0" />
    <path
       d="m 10813,10335 c -61,-26 -67,-48 -73,-260 l -5,-190 -37,-3 c -37,-3 -38,-5 -38,-40 0,-35 3,-39 49,-60 55,-25 79,-55 96,-122 l 11,-45 52,-3 52,-3 v 90 91 h 75 75 v 45 45 h -75 -75 v 158 c 0,176 7,200 53,188 14,-3 39,-17 55,-31 l 30,-25 31,39 31,39 -42,36 c -69,60 -191,83 -265,51 z"
       id="path31"
       inkscape:connector-curvature="0" />
    <path
       d="m 11330,10334 c -31,-11 -45,-13 -48,-5 -2,6 -21,11 -42,11 h -37 l -18,-82 c -9,-46 -17,-87 -17,-93 1,-5 16,-13 35,-17 31,-6 39,-3 76,32 66,63 177,79 225,31 l 20,-21 -20,-21 c -15,-14 -47,-24 -115,-35 -148,-24 -208,-68 -216,-161 -13,-138 151,-241 301,-190 31,11 63,14 95,10 l 49,-6 8,69 c 5,38 9,73 9,79 0,5 -18,13 -40,16 -37,6 -44,3 -82,-31 -56,-53 -136,-65 -180,-28 -41,33 3,62 137,88 62,13 118,30 138,43 34,23 72,88 72,124 0,64 -53,138 -125,175 -54,28 -164,34 -225,12 z"
       id="path33"
       inkscape:connector-curvature="0" />
    <path
       d="m 4490,10296 c 0,-42 2,-46 25,-46 14,0 34,-9 45,-20 19,-19 20,-33 20,-265 0,-232 -1,-246 -20,-265 -11,-11 -31,-20 -45,-20 -23,0 -25,-4 -25,-46 v -45 l 278,3 c 264,3 279,4 319,25 55,30 85,74 91,134 6,67 -3,94 -49,144 -36,39 -38,44 -20,50 105,33 146,195 75,297 -18,27 -48,52 -79,68 -49,25 -54,25 -332,28 l -283,3 z m 472,-72 c 35,-18 58,-62 58,-113 0,-91 -42,-121 -169,-121 h -81 v 108 c 0,59 4,113 9,120 20,33 125,36 183,6 z m 12,-373 c 28,-27 35,-76 15,-113 -15,-28 -69,-48 -129,-48 -84,0 -90,7 -90,106 v 86 l 89,-4 c 78,-3 93,-6 115,-27 z"
       id="path35"
       inkscape:connector-curvature="0" />
    <path
       d="m 6960,10301 c 0,-36 4,-41 38,-58 l 37,-18 3,-134 c 3,-145 -6,-176 -50,-183 -18,-2 -24,-10 -26,-37 -2,-18 1,-38 5,-42 11,-11 165,-39 216,-39 h 37 v 210 c 0,197 1,211 20,230 11,11 29,20 40,20 17,0 20,7 20,45 v 45 h -170 -170 z"
       id="path37"
       inkscape:connector-curvature="0" />
    <path
       d="m 7370,10295 c 0,-38 3,-45 19,-45 45,0 52,-22 49,-173 l -3,-142 -32,-14 c -30,-13 -33,-19 -33,-57 v -42 l 53,-12 c 28,-7 82,-14 120,-17 64,-5 67,-5 67,17 0,19 4,21 23,15 133,-42 197,-45 258,-14 65,33 79,75 79,247 0,79 4,152 10,162 5,10 23,23 40,28 27,10 30,15 30,51 v 41 h -160 -160 v -45 c 0,-31 4,-45 13,-45 8,0 22,-9 31,-19 15,-17 17,-38 14,-166 -3,-161 -7,-170 -66,-161 -18,3 -48,14 -67,26 l -35,22 v 108 c 0,141 6,167 41,186 25,12 29,21 29,54 v 40 h -160 -160 z"
       id="path39"
       inkscape:connector-curvature="0" />
    <path
       d="m 7078,9734 c -30,-16 -58,-61 -58,-94 0,-29 26,-76 52,-94 12,-9 38,-16 56,-16 46,0 102,55 102,99 0,47 -27,91 -65,107 -42,17 -53,17 -87,-2 z"
       id="path41"
       inkscape:connector-curvature="0" />
    <path
       d="m 7725,8701 c -55,-10 -148,-33 -207,-51 l -108,-33 v -638 -637 l 113,-140 c 107,-133 114,-140 154,-146 39,-5 50,-1 132,52 l 90,57 v 778 l 1,777 -37,-1 c -21,0 -83,-9 -138,-18 z"
       id="path43"
       inkscape:connector-curvature="0" />
    <path
       d="m 8130,8019 c 0,-557 3,-699 13,-693 53,31 97,68 97,80 0,32 33,84 65,104 90,56 205,-12 205,-122 0,-26 11,-45 55,-93 l 54,-60 1,693 v 692 l -27,11 c -97,37 -345,89 -425,89 h -38 z"
       id="path45"
       inkscape:connector-curvature="0" />
    <path
       d="m 8850,7749 1,-764 104,-107 c 79,-83 110,-108 130,-108 35,0 86,-23 109,-49 16,-17 30,-21 83,-21 h 63 v 705 706 l -113,112 c -102,101 -230,202 -337,266 l -40,23 z"
       id="path47"
       inkscape:connector-curvature="0" />
    <path
       d="m 7054,8428 c -73,-48 -150,-112 -236,-196 l -128,-125 v -108 -109 h 68 c 56,0 72,4 87,20 47,52 135,47 191,-11 24,-25 29,-39 29,-79 0,-45 5,-56 55,-120 30,-38 56,-70 57,-70 2,0 3,196 3,435 0,239 -4,435 -8,435 -5,0 -58,-32 -118,-72 z"
       id="path49"
       inkscape:connector-curvature="0" />
    <path
       d="m 5389,7881 c -60,-60 -24,-151 60,-151 31,0 44,6 64,30 l 26,30 h 652 653 l 21,-27 c 15,-18 34,-28 65,-32 l 44,-6 302,-374 c 274,-338 302,-376 293,-398 -11,-30 10,-87 39,-102 57,-31 128,4 138,68 3,21 13,42 22,48 10,6 136,88 281,182 252,164 266,172 292,160 16,-6 39,-9 52,-5 21,5 49,-20 218,-201 415,-442 395,-418 391,-462 -5,-48 10,-76 50,-97 41,-21 103,-5 120,32 l 11,24 h 635 636 l 26,-32 c 23,-27 34,-33 70,-33 35,0 47,6 71,33 46,52 34,118 -28,147 -44,21 -85,12 -117,-26 l -25,-29 h -630 -631 l -15,24 c -20,30 -67,50 -99,42 -21,-5 -49,21 -233,217 -418,444 -382,401 -376,446 5,35 2,44 -25,71 -42,41 -92,42 -133,1 -19,-19 -29,-40 -29,-59 0,-28 -13,-39 -172,-144 -299,-197 -390,-253 -402,-249 -6,2 -29,7 -51,10 -38,6 -50,20 -335,373 l -296,367 v 50 c 1,58 -20,87 -69,97 -36,6 -72,-8 -93,-38 -13,-17 -43,-18 -667,-18 h -653 l -30,30 c -41,40 -83,40 -123,1 z"
       id="path51"
       inkscape:connector-curvature="0" />
    <path
       d="m 5957,7653 c -15,-54 -33,-138 -42,-187 -8,-49 -17,-92 -20,-94 -3,-3 -80,-13 -171,-22 -118,-12 -168,-21 -175,-31 -5,-8 -9,-109 -9,-225 0,-192 2,-213 18,-219 9,-4 89,-15 177,-24 l 160,-16 7,-35 c 52,-255 89,-385 142,-511 5,-11 -24,-36 -111,-99 -138,-97 -163,-118 -163,-137 0,-17 198,-365 212,-374 16,-10 44,0 193,68 l 140,64 45,-53 c 77,-91 222,-237 293,-295 37,-30 67,-60 67,-65 0,-6 -29,-75 -65,-155 -36,-80 -65,-150 -65,-157 0,-22 32,-43 206,-141 152,-86 170,-94 188,-81 12,7 62,70 111,139 50,70 94,127 99,127 4,0 49,-15 100,-34 103,-39 256,-79 372,-99 92,-16 84,0 104,-213 7,-72 16,-138 21,-145 6,-11 51,-15 204,-18 208,-3 239,0 249,24 3,9 13,84 21,168 9,84 18,158 20,165 2,6 16,12 31,12 50,0 259,51 393,97 73,24 137,41 141,36 4,-4 48,-65 98,-134 50,-70 98,-129 105,-132 17,-6 25,-2 230,114 123,71 157,95 157,111 0,11 -30,88 -67,171 l -67,150 50,40 c 62,51 268,257 320,320 l 39,48 159,-72 160,-71 25,28 c 33,37 201,336 201,357 0,18 -49,59 -187,156 l -91,64 25,66 c 22,56 73,210 73,219 0,1 -90,1 -200,0 l -201,-3 -40,-100 c -95,-237 -205,-401 -394,-591 -199,-199 -414,-334 -668,-419 -420,-141 -862,-121 -1268,55 -739,320 -1174,1158 -1010,1944 16,74 64,238 87,294 5,9 -39,12 -199,12 h -204 z"
       id="path53"
       inkscape:connector-curvature="0" />
  </g>
  <g
     id="layer3"
     style="fill:#f99008;stroke:none"
     transform="translate(-4354.264,-4355.0211)">
    <path
       d="m 7796,9594 c -9,-8 -16,-18 -16,-22 0,-27 -32,-317 -35,-323 -3,-3 -30,-10 -61,-14 -86,-10 -247,-52 -378,-96 -65,-23 -121,-37 -125,-32 -5,4 -47,63 -95,130 -48,68 -95,127 -105,132 -13,7 -29,4 -57,-11 -83,-44 -300,-172 -317,-186 -24,-21 -20,-36 55,-205 l 62,-139 -50,-41 c -63,-52 -267,-257 -319,-320 l -40,-48 -159,72 -159,72 -26,-29 c -33,-37 -201,-336 -201,-357 0,-18 49,-59 188,-157 67,-47 91,-68 86,-80 -22,-53 -33,-50 189,-50 h 205 l 46,83 c 138,243 338,461 561,609 112,75 324,178 432,212 661,206 1356,22 1822,-481 169,-182 301,-408 380,-648 93,-286 111,-592 52,-879 l -18,-86 196,2 196,3 14,78 c 15,90 -3,81 196,98 77,6 148,16 158,21 15,8 17,29 17,228 0,142 -4,221 -10,225 -6,4 -73,13 -148,21 -222,24 -198,13 -212,97 -15,88 -63,287 -83,342 -8,22 -24,63 -35,91 l -21,51 140,99 c 105,74 139,103 139,120 0,21 -193,363 -212,375 -16,10 -49,-2 -198,-71 l -135,-62 -39,49 c -51,62 -268,279 -326,325 l -44,36 68,152 c 37,83 66,159 64,168 -4,20 -45,48 -227,152 -110,63 -148,81 -160,73 -13,-8 -144,-181 -194,-257 -13,-18 -17,-18 -115,17 -122,44 -233,73 -362,96 l -95,17 -12,120 c -24,229 -24,228 -58,235 -16,4 -114,7 -217,8 -157,1 -189,-1 -202,-15 z"
       id="path56"
       inkscape:connector-curvature="0" />
    <path
       d="m 6690,7425 v -325 h 245 245 v 156 155 l -112,139 c -86,106 -119,140 -136,140 -27,0 -73,22 -91,44 -10,12 -32,16 -82,16 h -69 z"
       id="path58"
       inkscape:connector-curvature="0" />
    <path
       d="m 8222,7217 -92,-60 2,-176 3,-176 h 240 240 l 3,113 c 2,84 -1,118 -11,133 -31,44 -209,219 -218,214 -5,-3 -23,-2 -41,3 -30,8 -42,3 -126,-51 z"
       id="path60"
       inkscape:connector-curvature="0" />
    <path
       d="m 7410,6795 v -315 h 245 245 v 260 c 0,143 -2,260 -5,260 -3,0 -27,-14 -53,-32 -38,-25 -52,-42 -65,-79 -21,-58 -65,-89 -127,-89 -36,0 -48,6 -81,39 -35,35 -39,44 -39,88 0,46 -5,57 -52,116 -29,36 -56,66 -60,66 -5,1 -8,-141 -8,-314 z"
       id="path62"
       inkscape:connector-curvature="0" />
    <path
       d="m 8850,6463 v -333 h 245 245 v 215 215 h -61 c -54,0 -66,-4 -96,-30 -29,-26 -42,-30 -90,-30 -51,0 -58,3 -94,39 -34,34 -39,44 -39,87 -1,45 -5,54 -55,109 l -55,60 z"
       id="path64"
       inkscape:connector-curvature="0" />
  </g>
</svg>
